<?xml version="1.0" encoding="UTF-8"?>
<svg width="40px" height="41px" viewBox="0 0 40 41" version="1.1" xmlns="http://www.w3.org/2000/svg" xmlns:xlink="http://www.w3.org/1999/xlink">
    <title>icon-projects</title>
    <defs>
        <polygon id="path-1" points="0 3.55271368e-15 35.7886 3.55271368e-15 35.7886 29 0 29"></polygon>
    </defs>
    <g id="Symbols" stroke="none" stroke-width="1" fill="none" fill-rule="evenodd">
        <g id="Udacity's-digital-competency-platform-/-Updated-Desktop" transform="translate(-887.000000, -925.000000)">
            <g id="icon-projects" transform="translate(887.000000, 925.000000)">
                <g id="Group-3" transform="translate(0.000000, 11.000300)">
                    <mask id="mask-2" fill="white">
                        <use xlink:href="#path-1"></use>
                    </mask>
                    <g id="Clip-2"></g>
                    <path d="M13.8086,4.645 L13.8086,1.61 C13.8086,0.721 13.0876,3.55271368e-15 12.1986,3.55271368e-15 L1.6096,3.55271368e-15 C0.7206,3.55271368e-15 -0.0004,0.721 -0.0004,1.61 L-0.0004,25.78 C-0.0004,27.558 1.4416,29 3.2196,29 L32.5686,29 C34.3466,29 35.7886,27.558 35.7886,25.78 L35.7886,7.865 C35.7886,6.087 34.3466,4.645 32.5686,4.645 L13.8086,4.645 Z" id="Fill-1" fill="#3D7AFF" mask="url(#mask-2)"></path>
                </g>
                <path d="M9.6601,19.0584 C7.8821,19.0584 6.4401,20.5004 6.4401,22.2784 L6.4401,36.7804 C6.4401,38.5584 4.9981,40.0004 3.2201,40.0004 L32.5681,40.0004 C34.3471,40.0004 35.7891,38.5584 35.7891,36.7804 L35.7891,19.0584 L9.6601,19.0584 Z" id="Fill-4" fill="#3D7AFF"></path>
                <path d="M35.7887,19.0584 L9.6597,19.0584 C7.8817,19.0584 6.4397,20.5004 6.4397,22.2784 L6.4397,36.7804 C6.4397,38.5584 4.9987,40.0004 3.2197,40.0004" id="Stroke-6" stroke="#0B0B0B" stroke-linecap="round"></path>
                <path d="M40,11.5 C40,17.851 34.851,23 28.5,23 C22.149,23 17,17.851 17,11.5 C17,5.149 22.149,0 28.5,0 C34.851,0 40,5.149 40,11.5" id="Fill-8" fill="#BEE907"></path>
                <polyline id="Stroke-10" stroke="#0B0B0B" stroke-linecap="round" stroke-linejoin="round" points="23.9928 11.853 26.7618 14.622 33.0068 8.378"></polyline>
            </g>
        </g>
    </g>
</svg>