<?xml version="1.0" encoding="UTF-8"?>
<svg width="42px" height="42px" viewBox="0 0 42 42" version="1.1" xmlns="http://www.w3.org/2000/svg" xmlns:xlink="http://www.w3.org/1999/xlink">
    <title>icon-expert-network</title>
    <g id="Symbols" stroke="none" stroke-width="1" fill="none" fill-rule="evenodd">
        <g id="Udacity's-digital-competency-platform-/-Updated-Desktop" transform="translate(-1199.000000, -924.000000)">
            <g id="icon-expert-network" transform="translate(1200.000000, 925.000000)">
                <path d="M40,20 C40,31.046 31.046,40 20,40 C8.954,40 0,31.046 0,20 C0,8.954 8.954,0 20,0 C31.046,0 40,8.954 40,20 Z" id="Stroke-1" stroke="#0B0B0B" stroke-linecap="round"></path>
                <path d="M31.3528667,20 C31.3528667,31.046 26.2702,40 20.0002,40 C13.7302,40 8.64686667,31.046 8.64686667,20 C8.64686667,8.954 13.7302,0 20.0002,0 C26.2702,0 31.3528667,8.954 31.3528667,20 Z" id="Stroke-3" stroke="#0B0B0B" stroke-linecap="round"></path>
                <line x1="20" y1="0" x2="20" y2="40" id="Stroke-5" stroke="#0B0B0B" stroke-linecap="round"></line>
                <line x1="0" y1="20" x2="40" y2="20" id="Stroke-7" stroke="#0B0B0B" stroke-linecap="round"></line>
                <line x1="2.67693333" y1="10" x2="37.3202667" y2="10" id="Stroke-9" stroke="#0B0B0B" stroke-linecap="round"></line>
                <line x1="2.67693333" y1="30" x2="37.3202667" y2="30" id="Stroke-11" stroke="#0B0B0B" stroke-linecap="round"></line>
                <path d="M27.4440667,8.54393333 C27.4440667,11.2246 23.5614,16.3099333 22.5907333,16.3099333 C21.6200667,16.3099333 17.7367333,11.2246 17.7367333,8.54393333 C17.7367333,5.86326667 19.9100667,3.6906 22.5907333,3.6906 C25.2707333,3.6906 27.4440667,5.86326667 27.4440667,8.54393333" id="Fill-13" fill="#BDEA09"></path>
                <path d="M14.0538667,19.7698 C14.0538667,22.4504667 10.1712,27.5358 9.20053333,27.5358 C8.22986667,27.5358 4.34653333,22.4504667 4.34653333,19.7698 C4.34653333,17.0891333 6.51986667,14.9164667 9.20053333,14.9164667 C11.8805333,14.9164667 14.0538667,17.0891333 14.0538667,19.7698" id="Fill-15" fill="#3D7AFF"></path>
                <path d="M34.5162667,26.9053333 C34.5162667,29.586 30.6336,34.6713333 29.6629333,34.6713333 C28.6922667,34.6713333 24.8089333,29.586 24.8089333,26.9053333 C24.8089333,24.2246667 26.9822667,22.052 29.6629333,22.052 C32.3429333,22.052 34.5162667,24.2246667 34.5162667,26.9053333" id="Fill-17" fill="#9E62FF"></path>
                <path d="M11.3246667,19.6324667 C11.3246667,20.8058 10.3733333,21.7571333 9.2,21.7571333 C8.02733333,21.7571333 7.076,20.8058 7.076,19.6324667 C7.076,18.4591333 8.02733333,17.5078 9.2,17.5078 C10.3733333,17.5078 11.3246667,18.4591333 11.3246667,19.6324667 Z" id="Stroke-19" stroke="#0B0B0B" stroke-linecap="round"></path>
                <path d="M24.7148667,8.3402 C24.7148667,9.51353333 23.7635333,10.4648667 22.5902,10.4648667 C21.4175333,10.4648667 20.4662,9.51353333 20.4662,8.3402 C20.4662,7.16686667 21.4175333,6.21553333 22.5902,6.21553333 C23.7635333,6.21553333 24.7148667,7.16686667 24.7148667,8.3402 Z" id="Stroke-21" stroke="#0B0B0B" stroke-linecap="round"></path>
                <path d="M31.7870667,26.6898667 C31.7870667,27.8632 30.8357333,28.8145333 29.6624,28.8145333 C28.4897333,28.8145333 27.5384,27.8632 27.5384,26.6898667 C27.5384,25.5165333 28.4897333,24.5652 29.6624,24.5652 C30.8357333,24.5652 31.7870667,25.5165333 31.7870667,26.6898667 Z" id="Stroke-23" stroke="#0B0B0B" stroke-linecap="round"></path>
            </g>
        </g>
    </g>
</svg>