<?xml version="1.0" encoding="UTF-8"?>
<svg width="52px" height="36px" viewBox="0 0 52 36" version="1.1" xmlns="http://www.w3.org/2000/svg" xmlns:xlink="http://www.w3.org/1999/xlink">
    <title>logo-dnb</title>
    <g id="Homepage-R2" stroke="none" stroke-width="1" fill="none" fill-rule="evenodd">
        <g id="Homepage-Refresh-Design-R2_Desktop" transform="translate(-686.000000, -4337.000000)" fill="#0B0B0B">
            <g id="The-trusted-market-leader-in-talent-transformation" transform="translate(361.000000, 3604.000000)">
                <g id="Group-6" transform="translate(101.000000, 454.000000)">
                    <g id="Attribution" transform="translate(224.700000, 224.450000)">
                        <g id="logo-dnb" transform="translate(0.000000, 55.000000)">
                            <path d="M31.0101156,0.00555817951 C31.6213701,0.00555817951 32.2409961,-0.0114637452 32.8522506,0.0140691419 C32.8182067,0.302744243 32.8182067,0.591279819 32.8267177,0.87995492 L32.8267177,26.7961144 C32.8013243,27.2714726 32.1136107,27.4411337 31.8419575,27.0592566 C27.8692914,22.0083492 23.9049967,16.940699 19.9323307,11.8897917 C19.9238197,19.5891431 19.9238197,27.2968659 19.9323307,34.9962174 C19.3210761,35.0047283 18.7184721,34.9962174 18.1072176,34.9962174 L18.1072176,10.1241158 C18.1157285,9.46207452 18.0901956,8.79138278 18.1157285,8.12934153 C18.1496328,7.65384382 18.845718,7.50106507 19.1088602,7.87457075 C23.0731548,12.9254781 27.0374495,17.9932679 31.0016046,23.0355247 C31.0186265,15.3787281 31.0016046,7.68788767 31.0101156,0.00555817951" id="Fill-1"></path>
                            <path d="M1.83428541,9.64875759 L1.83428541,25.3784113 C3.23496658,25.3784113 4.63550822,25.3869223 6.04470035,25.3784113 C7.5302121,25.3613894 9.04976769,24.9030531 10.1871671,23.9182929 C11.1804383,23.0694291 11.8424795,21.8979858 12.2159852,20.6587339 C12.7338982,18.9354733 12.7678025,17.0849668 12.4196902,15.3278019 C12.1396656,13.9356317 11.6048702,12.5434615 10.6032276,11.516286 C9.46568866,10.2854055 7.76796095,9.69131241 6.12115949,9.65726856 C4.686574,9.64875759 3.26035994,9.64875759 1.83428541,9.64875759 M6.22287247,7.83215546 C7.98868787,7.89159267 9.76273519,8.43489903 11.1463944,9.54690509 C12.4028078,10.5231543 13.294087,11.923696 13.794978,13.4262296 C14.3721887,15.1494902 14.5673827,16.9916253 14.414604,18.7997164 C14.2618252,20.3615478 13.8544152,21.9235187 13.0479667,23.281645 C12.4367121,24.3427248 11.5708264,25.2511654 10.5437904,25.9132067 C9.18552452,26.7876034 7.56425595,27.1865025 5.96824122,27.2035244 L0.637309244,27.2035244 C0.297847417,27.2375682 -0.016360571,26.9233603 0.000661353756,26.5838984 L0.000661353756,8.5197296 C-0.00784960862,8.29063124 0.0771204911,8.04437143 0.280825492,7.91712556 C0.425093281,7.81527306 0.611915881,7.83215546 0.790087995,7.8236445 C2.59831869,7.83215546 4.41492082,7.8067621 6.22287247,7.83215546" id="Fill-4"></path>
                            <path d="M38.9810923,17.9337888 L38.9810923,25.3783694 C40.8145768,25.3783694 42.6567118,25.3868804 44.4901963,25.3783694 C45.7380988,25.3359542 47.0793427,25.0983448 48.047081,24.249481 C48.7940923,23.6043221 49.1081608,22.5941686 49.1081608,21.6349412 C49.176109,20.6331591 48.760188,19.6144946 47.9876438,18.9694753 C47.0963646,18.2139529 45.8993885,17.9167669 44.7534781,17.9422998 C42.8265125,17.9337888 40.9080579,17.9252778 38.9810923,17.9337888 M38.9810923,9.64871574 C38.9725813,11.7964083 38.9810923,13.9441008 38.9810923,16.0917933 C40.9334512,16.1001647 42.8774387,16.0917933 44.8297977,16.1001647 C45.7721426,16.1086757 46.7652743,15.7182876 47.2915587,14.9033281 C47.8178431,14.0544642 47.8602584,12.9933844 47.6904577,12.0426681 C47.5632119,11.2871458 47.0963646,10.5995716 46.4171619,10.2514593 C45.3221778,9.67424862 44.0403711,9.6403443 42.8348839,9.6572267 C41.5447057,9.64871574 40.262899,9.64871574 38.9810923,9.64871574 M43.4970647,7.82374217 C44.8977459,7.84913553 46.3662357,8.04432957 47.5717228,8.80836285 C48.5394611,9.41110641 49.2185243,10.4297709 49.4477622,11.541777 C49.7107649,12.8150728 49.6599781,14.198732 49.0911389,15.3871972 C48.8365076,15.938875 48.44598,16.4058618 48.0046657,16.8132718 C49.1251827,17.3650891 50.0758991,18.2987835 50.5512573,19.4617158 C51.0351264,20.6077657 51.0010826,21.9064549 50.7294294,23.1034311 C50.4494048,24.2578524 49.7533197,25.3190718 48.760188,25.989624 C47.4613594,26.897925 45.8484622,27.1695782 44.2950023,27.2034825 L37.8605752,27.2034825 C37.503952,27.2544088 37.1305858,26.9573622 37.1559792,26.5838566 L37.1559792,8.44336813 C37.1305858,8.09539534 37.4445147,7.79820928 37.7841161,7.82374217 C39.6940598,7.82374217 41.595632,7.82374217 43.4970647,7.82374217" id="Fill-7"></path>
                        </g>
                    </g>
                </g>
            </g>
        </g>
    </g>
</svg>